<svg width="297" height="38" viewBox="0 0 297 38" fill="none" xmlns="http://www.w3.org/2000/svg">
<path d="M1 37.2012C71.3333 31.8679 228.8 22.8012 296 29.2012" stroke="#FF5C00"/>
<path d="M15.625 13.4205H17.3182C17.267 11.5568 15.6193 10.2045 13.2557 10.2045C10.9205 10.2045 9.13068 11.5398 9.13068 13.5455C9.13068 15.1648 10.2898 16.1136 12.1591 16.6193L13.5341 16.9943C14.7784 17.3239 15.7386 17.733 15.7386 18.767C15.7386 19.9034 14.6534 20.6534 13.1591 20.6534C11.8068 20.6534 10.6818 20.0511 10.5795 18.7841H8.81818C8.93182 20.892 10.5625 22.1932 13.1705 22.1932C15.9034 22.1932 17.4773 20.7557 17.4773 18.7841C17.4773 16.6875 15.608 15.875 14.1307 15.5114L12.9943 15.2159C12.0852 14.983 10.875 14.5568 10.8807 13.4432C10.8807 12.4545 11.7841 11.7216 13.2159 11.7216C14.5511 11.7216 15.5 12.3466 15.625 13.4205ZM22.7753 22H24.531V16.9261H30.3321V22H32.0935V10.3636H30.3321V15.4205H24.531V10.3636H22.7753V22ZM38.8332 22L39.9014 18.9205H44.4469L45.5094 22H47.373L43.1855 10.3636H41.1571L36.9696 22H38.8332ZM40.4128 17.4432L42.1287 12.4773H42.2196L43.9355 17.4432H40.4128ZM52.2534 22H54.0091V17.5966H56.3955C56.4352 17.5966 56.4693 17.5966 56.5091 17.5966L58.8727 22H60.8727L58.2932 17.2898C59.7193 16.7614 60.4295 15.5739 60.4295 14.0114C60.4295 11.8693 59.1 10.3636 56.4011 10.3636H52.2534V22ZM54.0091 16.0852V11.8693H56.2136C57.9466 11.8693 58.6625 12.6932 58.6625 14.0114C58.6625 15.3239 57.9466 16.0852 56.2364 16.0852H54.0091ZM65.7659 22H73.1295V20.4886H67.5216V16.9261H72.6807V15.4205H67.5216V11.875H73.0614V10.3636H65.7659V22ZM85.1432 10.3636L89.3648 17.4318V22H91.1148V17.4318L95.3364 10.3636H93.342L90.3023 15.6534H90.1773L87.1375 10.3636H85.1432ZM109.693 16.1818C109.693 12.4602 107.465 10.2045 104.454 10.2045C101.431 10.2045 99.2097 12.4602 99.2097 16.1818C99.2097 19.8977 101.431 22.1591 104.454 22.1591C107.465 22.1591 109.693 19.9034 109.693 16.1818ZM107.954 16.1818C107.954 19.017 106.454 20.5568 104.454 20.5568C102.448 20.5568 100.954 19.017 100.954 16.1818C100.954 13.3466 102.448 11.8068 104.454 11.8068C106.454 11.8068 107.954 13.3466 107.954 16.1818ZM122.57 10.3636V18.0341C122.57 19.6648 121.269 20.5795 119.701 20.5795C118.144 20.5795 116.837 19.6648 116.837 18.0341V10.3636H115.082V18.0625C115.082 20.6875 117.127 22.1932 119.701 22.1932C122.275 22.1932 124.326 20.6875 124.326 18.0625V10.3636H122.57ZM130.078 22H131.834V17.5966H134.22C134.26 17.5966 134.294 17.5966 134.334 17.5966L136.698 22H138.698L136.118 17.2898C137.544 16.7614 138.255 15.5739 138.255 14.0114C138.255 11.8693 136.925 10.3636 134.226 10.3636H130.078V22ZM131.834 16.0852V11.8693H134.039C135.772 11.8693 136.488 12.6932 136.488 14.0114C136.488 15.3239 135.772 16.0852 134.061 16.0852H131.834ZM161.133 16.1818C161.133 12.4602 158.906 10.2045 155.895 10.2045C152.872 10.2045 150.65 12.4602 150.65 16.1818C150.65 19.8977 152.872 22.1591 155.895 22.1591C158.906 22.1591 161.133 19.9034 161.133 16.1818ZM159.395 16.1818C159.395 19.017 157.895 20.5568 155.895 20.5568C153.889 20.5568 152.395 19.017 152.395 16.1818C152.395 13.3466 153.889 11.8068 155.895 11.8068C157.895 11.8068 159.395 13.3466 159.395 16.1818ZM168.801 22H170.573L173.022 13.2841H173.113L175.562 22H177.329L180.562 10.3636H178.71L176.448 19.3807H176.34L173.982 10.3636H172.153L169.795 19.375H169.687L167.42 10.3636H165.573L168.801 22ZM194.755 10.3636H193.016V18.9091H192.908L186.988 10.3636H185.363V22H187.118V13.4659H187.226L193.141 22H194.755V10.3636ZM214.297 13.4205H215.99C215.939 11.5568 214.291 10.2045 211.928 10.2045C209.592 10.2045 207.803 11.5398 207.803 13.5455C207.803 15.1648 208.962 16.1136 210.831 16.6193L212.206 16.9943C213.45 17.3239 214.411 17.733 214.411 18.767C214.411 19.9034 213.325 20.6534 211.831 20.6534C210.479 20.6534 209.354 20.0511 209.251 18.7841H207.49C207.604 20.892 209.234 22.1932 211.842 22.1932C214.575 22.1932 216.149 20.7557 216.149 18.7841C216.149 16.6875 214.28 15.875 212.803 15.5114L211.666 15.2159C210.757 14.983 209.547 14.5568 209.553 13.4432C209.553 12.4545 210.456 11.7216 211.888 11.7216C213.223 11.7216 214.172 12.3466 214.297 13.4205ZM220.873 11.875H224.498V22H226.248V11.875H229.879V10.3636H220.873V11.875ZM244.693 16.1818C244.693 12.4602 242.465 10.2045 239.454 10.2045C236.431 10.2045 234.21 12.4602 234.21 16.1818C234.21 19.8977 236.431 22.1591 239.454 22.1591C242.465 22.1591 244.693 19.9034 244.693 16.1818ZM242.954 16.1818C242.954 19.017 241.454 20.5568 239.454 20.5568C237.448 20.5568 235.954 19.017 235.954 16.1818C235.954 13.3466 237.448 11.8068 239.454 11.8068C241.454 11.8068 242.954 13.3466 242.954 16.1818ZM250.082 22H251.837V17.5966H254.224C254.263 17.5966 254.297 17.5966 254.337 17.5966L256.701 22H258.701L256.121 17.2898C257.547 16.7614 258.258 15.5739 258.258 14.0114C258.258 11.8693 256.928 10.3636 254.229 10.3636H250.082V22ZM251.837 16.0852V11.8693H254.042C255.775 11.8693 256.491 12.6932 256.491 14.0114C256.491 15.3239 255.775 16.0852 254.064 16.0852H251.837ZM262.696 10.3636L266.918 17.4318V22H268.668V17.4318L272.889 10.3636H270.895L267.855 15.6534H267.73L264.691 10.3636H262.696ZM279.753 10.3636H277.884L278.031 18.6534H279.605L279.753 10.3636ZM278.815 22.108C279.435 22.108 279.952 21.6023 279.952 20.9716C279.952 20.3523 279.435 19.8409 278.815 19.8409C278.19 19.8409 277.679 20.3523 277.679 20.9716C277.679 21.6023 278.19 22.108 278.815 22.108Z" fill="white"/>
</svg>
